<svg height="678" version="1.1" width="1148" xmlns="http://www.w3.org/2000/svg" style="overflow: hidden; position: relative;"><desc style="-webkit-tap-highlight-color: rgba(0, 0, 0, 0);">Created with Raphaël 2.0.1</desc><defs style="-webkit-tap-highlight-color: rgba(0, 0, 0, 0);"></defs><rect x="0" y="0" width="1148" height="678" r="0" rx="0" ry="0" fill="#c2ed14" stroke="none" style="-webkit-tap-highlight-color: rgba(0, 0, 0, 0);"></rect><ellipse cx="902" cy="562" rx="87" ry="122.66999999999999" fill="#b569ed" stroke="#209ba6" transform="matrix(1,0,0,1,0,0)" stroke-width="16" opacity="0.5" style="-webkit-tap-highlight-color: rgba(0, 0, 0, 0); opacity: 0.5;"></ellipse><ellipse cx="1072" cy="432" rx="37" ry="52.169999999999995" fill="#b569ed" stroke="#209ba6" transform="matrix(0.9749,0.2225,-0.2225,0.9749,123.0063,-227.7113)" stroke-width="16" opacity="0.5" style="-webkit-tap-highlight-color: rgba(0, 0, 0, 0); opacity: 0.5;"></ellipse><ellipse cx="1060" cy="477" rx="44" ry="62.04" fill="#b569ed" stroke="#209ba6" transform="matrix(0.901,0.4339,-0.4339,0.901,311.9355,-412.6789)" stroke-width="16" opacity="0.5" style="-webkit-tap-highlight-color: rgba(0, 0, 0, 0); opacity: 0.5;"></ellipse><ellipse cx="1011" cy="492" rx="92" ry="129.72" fill="#b569ed" stroke="#209ba6" transform="matrix(0.7818,0.6235,-0.6235,0.7818,527.3254,-523.0093)" stroke-width="16" opacity="0.5" style="-webkit-tap-highlight-color: rgba(0, 0, 0, 0); opacity: 0.5;"></ellipse><ellipse cx="876" cy="433" rx="70" ry="98.69999999999999" fill="#b569ed" stroke="#209ba6" transform="matrix(0.6235,0.7818,-0.7818,0.6235,668.356,-521.8555)" stroke-width="16" opacity="0.5" style="-webkit-tap-highlight-color: rgba(0, 0, 0, 0); opacity: 0.5;"></ellipse><ellipse cx="277" cy="120" rx="101" ry="142.41" fill="#b569ed" stroke="#209ba6" transform="matrix(0.4339,0.901,-0.901,0.4339,264.9305,-181.6344)" stroke-width="16" opacity="0.5" style="-webkit-tap-highlight-color: rgba(0, 0, 0, 0); opacity: 0.5;"></ellipse><ellipse cx="486" cy="377" rx="89" ry="125.49" fill="#b569ed" stroke="#209ba6" transform="matrix(0.2225,0.9749,-0.9749,0.2225,745.4026,-180.7054)" stroke-width="16" opacity="0.5" style="-webkit-tap-highlight-color: rgba(0, 0, 0, 0); opacity: 0.5;"></ellipse><ellipse cx="763" cy="323" rx="149" ry="210.08999999999997" fill="#b569ed" stroke="#209ba6" transform="matrix(0,1,-1,0,1086,-440)" stroke-width="16" opacity="0.5" style="-webkit-tap-highlight-color: rgba(0, 0, 0, 0); opacity: 0.5;"></ellipse><ellipse cx="890" cy="359" rx="31" ry="43.71" fill="#b569ed" stroke="#209ba6" transform="matrix(-0.2225,0.9749,-0.9749,-0.2225,1438.0428,-428.8008)" stroke-width="16" opacity="0.5" style="-webkit-tap-highlight-color: rgba(0, 0, 0, 0); opacity: 0.5;"></ellipse><ellipse cx="548" cy="100" rx="57" ry="80.36999999999999" fill="#b569ed" stroke="#209ba6" transform="matrix(-0.4339,0.901,-0.901,-0.4339,875.8652,-350.3426)" stroke-width="16" opacity="0.5" style="-webkit-tap-highlight-color: rgba(0, 0, 0, 0); opacity: 0.5;"></ellipse><ellipse cx="1005" cy="392" rx="84" ry="118.44" fill="#b569ed" stroke="#209ba6" transform="matrix(-0.6235,0.7818,-0.7818,-0.6235,1938.0852,-149.3326)" stroke-width="16" opacity="0.5" style="-webkit-tap-highlight-color: rgba(0, 0, 0, 0); opacity: 0.5;"></ellipse><ellipse cx="1005" cy="427" rx="103" ry="145.23" fill="#b569ed" stroke="#209ba6" transform="matrix(-0.7818,0.6235,-0.6235,-0.7818,2056.9708,134.2348)" stroke-width="16" opacity="0.5" style="-webkit-tap-highlight-color: rgba(0, 0, 0, 0); opacity: 0.5;"></ellipse><ellipse cx="795" cy="506" rx="48" ry="67.67999999999999" fill="#b569ed" stroke="#209ba6" transform="matrix(-0.901,0.4339,-0.4339,-0.901,1730.8154,616.9527)" stroke-width="16" opacity="0.5" style="-webkit-tap-highlight-color: rgba(0, 0, 0, 0); opacity: 0.5;"></ellipse><ellipse cx="815" cy="266" rx="49" ry="69.08999999999999" fill="#b569ed" stroke="#209ba6" transform="matrix(-0.9749,0.2225,-0.2225,-0.9749,1668.7568,343.9763)" stroke-width="16" opacity="0.5" style="-webkit-tap-highlight-color: rgba(0, 0, 0, 0); opacity: 0.5;"></ellipse><ellipse cx="718" cy="312" rx="75" ry="105.75" fill="#b569ed" stroke="#209ba6" transform="matrix(-1,0,0,-1,1436,624)" stroke-width="16" opacity="0.5" style="-webkit-tap-highlight-color: rgba(0, 0, 0, 0); opacity: 0.5;"></ellipse><ellipse cx="561" cy="380" rx="63" ry="88.83" fill="#b569ed" stroke="#209ba6" transform="matrix(-0.9749,-0.2225,0.2225,-0.9749,1023.3766,875.3069)" stroke-width="16" opacity="0.5" style="-webkit-tap-highlight-color: rgba(0, 0, 0, 0); opacity: 0.5;"></ellipse><ellipse cx="613" cy="320" rx="130" ry="183.29999999999998" fill="#b569ed" stroke="#209ba6" transform="matrix(-0.901,-0.4339,0.4339,-0.901,1026.4511,874.2808)" stroke-width="16" opacity="0.5" style="-webkit-tap-highlight-color: rgba(0, 0, 0, 0); opacity: 0.5;"></ellipse><ellipse cx="844" cy="526" rx="70" ry="98.69999999999999" fill="#b569ed" stroke="#209ba6" transform="matrix(-0.7818,-0.6235,0.6235,-0.7818,1175.9101,1463.4688)" stroke-width="16" opacity="0.5" style="-webkit-tap-highlight-color: rgba(0, 0, 0, 0); opacity: 0.5;"></ellipse><ellipse cx="256" cy="536" rx="61" ry="86.00999999999999" fill="#b569ed" stroke="#209ba6" transform="matrix(-0.6235,-0.7818,0.7818,-0.6235,-3.4483,1070.3394)" stroke-width="16" opacity="0.5" style="-webkit-tap-highlight-color: rgba(0, 0, 0, 0); opacity: 0.5;"></ellipse><ellipse cx="584" cy="495" rx="71" ry="100.11" fill="#b569ed" stroke="#209ba6" transform="matrix(-0.4339,-0.901,0.901,-0.4339,391.4085,1235.9383)" stroke-width="16" opacity="0.5" style="-webkit-tap-highlight-color: rgba(0, 0, 0, 0); opacity: 0.5;"></ellipse><ellipse cx="176" cy="93" rx="130" ry="183.29999999999998" fill="#b569ed" stroke="#209ba6" transform="matrix(-0.2225,-0.9749,0.9749,-0.2225,124.4954,285.2818)" stroke-width="16" opacity="0.5" style="-webkit-tap-highlight-color: rgba(0, 0, 0, 0); opacity: 0.5;"></ellipse><ellipse cx="271" cy="552" rx="36" ry="50.76" fill="#b569ed" stroke="#209ba6" transform="matrix(0,-1,1,0,-281,823)" stroke-width="16" opacity="0.5" style="-webkit-tap-highlight-color: rgba(0, 0, 0, 0); opacity: 0.5;"></ellipse><ellipse cx="589" cy="90" rx="102" ry="143.82" fill="#b569ed" stroke="#209ba6" transform="matrix(0.2225,-0.9749,0.9749,0.2225,370.1917,644.2057)" stroke-width="16" opacity="0.5" style="-webkit-tap-highlight-color: rgba(0, 0, 0, 0); opacity: 0.5;"></ellipse><ellipse cx="554" cy="551" rx="138" ry="194.57999999999998" fill="#b569ed" stroke="#209ba6" transform="matrix(0.4339,-0.901,0.901,0.4339,-182.8054,811.0668)" stroke-width="16" opacity="0.5" style="-webkit-tap-highlight-color: rgba(0, 0, 0, 0); opacity: 0.5;"></ellipse><ellipse cx="672" cy="463" rx="142" ry="200.22" fill="#b569ed" stroke="#209ba6" transform="matrix(0.6235,-0.7818,0.7818,0.6235,-108.9731,699.715)" stroke-width="16" opacity="0.5" style="-webkit-tap-highlight-color: rgba(0, 0, 0, 0); opacity: 0.5;"></ellipse><ellipse cx="833" cy="247" rx="150" ry="211.5" fill="#b569ed" stroke="#209ba6" transform="matrix(0.7818,-0.6235,0.6235,0.7818,27.7324,573.2546)" stroke-width="16" opacity="0.5" style="-webkit-tap-highlight-color: rgba(0, 0, 0, 0); opacity: 0.5;"></ellipse><ellipse cx="384" cy="193" rx="29" ry="40.89" fill="#b569ed" stroke="#209ba6" transform="matrix(0.901,-0.4339,0.4339,0.901,-45.7116,185.7244)" stroke-width="16" opacity="0.5" style="-webkit-tap-highlight-color: rgba(0, 0, 0, 0); opacity: 0.5;"></ellipse><ellipse cx="1020" cy="426" rx="67" ry="94.47" fill="#b569ed" stroke="#209ba6" transform="matrix(0.9749,-0.2225,0.2225,0.9749,-69.2204,237.6521)" stroke-width="16" opacity="0.5" style="-webkit-tap-highlight-color: rgba(0, 0, 0, 0); opacity: 0.5;"></ellipse></svg>